<svg xmlns="http://www.w3.org/2000/svg" width="568" height="100" viewBox="0 0 568 100">
  <g fill="none" fill-rule="evenodd" transform="translate(-1 -10)">
    <path fill="#000000" d="M0.0784901541,17.9925319 C0.0784901541,17.9925319 -0.506818821,24.1505099 1.51925071,27.117127 C3.56032816,30.0837441 5.28623924,28.8401622 6.99714239,28.2108798 C8.72305347,27.5815973 12.6101054,26.0083913 14.8913096,30.2335732 C17.1725138,34.4587552 13.1053668,38.8487492 10.5990438,40.7216135 C8.09272073,42.5944779 4.64089857,45.2614367 4.3257322,51.5093121 C4.01056583,57.7721704 5.27123131,61.9823695 10.5990438,62.9262931 C15.9268562,63.8702167 19.4687259,59.0007695 19.6188052,52.3183895 C19.7688844,45.6360095 20.1140666,40.3919894 21.9150173,35.372713 C23.715968,30.3384536 24.7515146,27.5965803 24.9616255,23.8358687 C25.1717365,20.0751571 20.8944786,14.3816495 13.075351,12.1491952 C5.27123131,9.91674092 0.873910043,12.7335289 0.0634822317,17.9925319 L0.0784901541,17.9925319 Z M6.01426376,0.733907207 C9.17213276,3.36349841 6.15024855,13.2394063 1.61742224,9.10078831 C-1.40446197,6.33672937 2.02537661,-2.59790437 6.01426376,0.733907207 Z M13.421453,3.01762494 C15.3581115,6.58052686 11.3637533,11.165696 9.15475215,7.43742732 C7.42991564,4.52095908 11.121671,-1.22177735 13.421453,3.01762494 Z M16.7325823,5.48224445 C15.5688448,5.28757897 14.4353342,6.23095784 14.2086321,7.59361621 C13.9819299,8.95627458 14.7376037,10.2290873 15.9013412,10.4237528 C17.0650787,10.6184183 18.1985893,9.67503944 18.4252914,8.31238107 C18.6519935,6.94972269 17.8963198,5.67690993 16.7325823,5.48224445 Z M20.9032167,8.49736216 C19.9572996,8.33071536 19.0409424,9.13364995 18.848803,10.2698781 C18.6566636,11.4061063 19.2774217,12.466586 20.2085588,12.6332328 C21.1544759,12.7998796 22.0708331,11.996945 22.2629725,10.8607168 C22.4551119,9.7244886 21.8343538,8.66400896 20.9032167,8.49736216 Z M24.2619675,11.8644535 C23.3151028,11.6994735 22.4133269,12.4793788 22.2179421,13.5892439 C22.0225574,14.6991091 22.6387709,15.7189852 23.5856356,15.8839651 C24.5325003,16.0489451 25.4342762,15.2690398 25.629661,14.1591747 C25.8250458,13.0493095 25.2088322,12.0294335 24.2619675,11.8644535 Z" transform="translate(506.143 28.478)"/>
    <ellipse cx="518.976" cy="60" stroke="#000000" stroke-width="9" rx="45.024" ry="45"/>
    <text fill="#000000" font-family="Skranji" font-size="86.4">
      <tspan x=".24" y="85">Marktramp</tspan>
    </text>
  </g>
</svg>
